<svg class="ldi-n0hjdo" width="100px"  height="100px"  xmlns="http://www.w3.org/2000/svg" xmlns:xlink="http://www.w3.org/1999/xlink" viewBox="0 0 100 100" preserveAspectRatio="xMidYMid" style="background: none;"><!--?xml version="1.0" encoding="utf-8"?--><!--Generator: Adobe Illustrator 21.0.0, SVG Export Plug-In . SVG Version: 6.00 Build 0)--><svg version="1.1" id="圖層_1" xmlns="http://www.w3.org/2000/svg" xmlns:xlink="http://www.w3.org/1999/xlink" x="0px" y="0px" viewBox="0 0 100 100" style="transform-origin: 50px 50px 0px;" xml:space="preserve"><g style="transform-origin: 50px 50px 0px;"><g style="transform-origin: 50px 50px 0px; transform: scale(1);"><g style="transform-origin: 50px 50px 0px;"><g><style type="text/css" class="ld ld-spin-fast" style="transform-origin: 50px 50px 0px; animation-duration: 2.2s; animation-delay: -2.2s; animation-direction: normal;">.st0{fill:#333333;} .st1{fill:#F8B26A;} .st2{fill:#F5E6C8;} .st3{fill:#D77D7D;} .st4{fill:none;stroke:#333333;stroke-width:6;stroke-miterlimit:10;} .st5{fill:#E15B64;} .st6{fill:#F47E60;} .st7{fill:#FFFFFF;} .st8{fill:#F8B26A;stroke:#333333;stroke-width:4;stroke-miterlimit:10;} .st9{fill:#666666;} .st10{fill:#E0E0E0;}</style><g class="ld ld-spin-fast" style="transform-origin: 50px 50px 0px; animation-duration: 2.2s; animation-delay: -2s; animation-direction: normal;"><path class="st0" d="M77.388,37.761c-0.85-1.898-1.889-3.692-3.097-5.357v0l6.396-8.054c-3.017-3.605-6.659-6.665-10.757-9.025 l-6.814,7.69c-1.842-0.897-3.79-1.609-5.82-2.117l-0.277-10.271C54.74,10.223,52.397,10,50,10s-4.74,0.223-7.021,0.627 l-0.277,10.271c-2.03,0.507-3.977,1.22-5.82,2.117l-6.814-7.69c-4.098,2.36-7.74,5.42-10.757,9.025l6.396,8.054v0 c-1.208,1.665-2.247,3.459-3.097,5.357l-10.184-1.514c-1.578,4.31-2.436,8.968-2.427,13.828c0.001,0.001,0.001,0.001,0.002,0.002 l10.082,2.059c0.148,2.099,0.511,4.136,1.068,6.094l-8.772,5.385c1.621,4.478,4.022,8.581,7.033,12.152l9.042-4.901l0,0 c1.436,1.483,3.019,2.822,4.734,3.985l-3.254,9.748c4.009,2.33,8.458,3.982,13.195,4.802l3.774-9.559C47.922,79.946,48.955,80,50,80 s2.078-0.054,3.096-0.159l3.774,9.559c4.737-0.82,9.186-2.472,13.195-4.802L66.81,74.85c1.715-1.162,3.298-2.502,4.734-3.985l0,0 l9.042,4.901c3.012-3.572,5.412-7.674,7.033-12.152l-8.772-5.385c0.557-1.957,0.92-3.995,1.068-6.094l10.082-2.059 c0.001-0.001,0.001-0.001,0.002-0.002c0.009-4.859-0.849-9.517-2.427-13.828L77.388,37.761z M67.807,36.255l-11.312,6.531L53,40.768 V27.705C59.012,28.507,64.27,31.679,67.807,36.255z M50,54.036l-3.495-2.018v-4.036L50,45.964l3.495,2.018v4.036L50,54.036z M47,27.705v13.063l-3.495,2.018l-11.312-6.531C35.73,31.679,40.988,28.507,47,27.705z M27.5,50c0-3.028,0.602-5.915,1.687-8.552 l11.318,6.534v4.036l-11.318,6.534C28.102,55.915,27.5,53.028,27.5,50z M32.193,63.745l11.312-6.531L47,59.232v13.063 C40.988,71.493,35.73,68.321,32.193,63.745z M53,72.295V59.232l3.495-2.018l11.312,6.531C64.27,68.321,59.012,71.493,53,72.295z M70.813,58.552l-11.318-6.534v-4.036l11.318-6.534C71.898,44.085,72.5,46.972,72.5,50S71.898,55.915,70.813,58.552z" fill="#ff9600" style="fill: rgb(255, 150, 0);"></path></g><metadata xmlns:d="https://loading.io/stock/" class="ld ld-spin-fast" style="transform-origin: 50px 50px 0px; animation-duration: 2.2s; animation-delay: -1.8s; animation-direction: normal;">
<d:name class="ld ld-spin-fast" style="transform-origin: 50px 50px 0px; animation-duration: 2.2s; animation-delay: -1.6s; animation-direction: normal;">gear</d:name>
<d:tags class="ld ld-spin-fast" style="transform-origin: 50px 50px 0px; animation-duration: 2.2s; animation-delay: -1.4s; animation-direction: normal;">setting,profile,customize,wheel,pinion,gear,gear</d:tags>
<d:license class="ld ld-spin-fast" style="transform-origin: 50px 50px 0px; animation-duration: 2.2s; animation-delay: -1.2s; animation-direction: normal;">cc-by</d:license>
<d:slug class="ld ld-spin-fast" style="transform-origin: 50px 50px 0px; animation-duration: 2.2s; animation-delay: -1s; animation-direction: normal;">n0hjdo</d:slug>
</metadata></g></g></g></g><style type="text/css" class="ld ld-spin-fast" style="transform-origin: 50px 50px 0px; animation-duration: 2.2s; animation-delay: -0.8s; animation-direction: normal;">@keyframes ld-spin-fast {
  0% {
    -webkit-transform: rotate(0);
    transform: rotate(0);
    animation-timing-function: cubic-bezier(0.55, 0.055, 0.675, 0.19);
  }
  50% {
    -webkit-transform: rotate(900deg);
    transform: rotate(900deg);
    animation-timing-function: cubic-bezier(0.215, 0.61, 0.355, 1);
  }
  100% {
    -webkit-transform: rotate(1800deg);
    transform: rotate(1800deg);
  }
}
@-webkit-keyframes ld-spin-fast {
  0% {
    -webkit-transform: rotate(0);
    transform: rotate(0);
    animation-timing-function: cubic-bezier(0.55, 0.055, 0.675, 0.19);
  }
  50% {
    -webkit-transform: rotate(900deg);
    transform: rotate(900deg);
    animation-timing-function: cubic-bezier(0.215, 0.61, 0.355, 1);
  }
  100% {
    -webkit-transform: rotate(1800deg);
    transform: rotate(1800deg);
  }
}
.ld.ld-spin-fast {
  -webkit-animation: ld-spin-fast 1s infinite;
  animation: ld-spin-fast 1s infinite;
}
</style></svg></svg>